<?xml version="1.0" encoding="UTF-8"?>
<svg version="1.1" xmlns="http://www.w3.org/2000/svg" width="134" height="134">
<path d="M0 0 C0.66 0 1.32 0 2 0 C-1.42923153 16.72016614 -5.21206591 33.3583216 -9 50 C-10.98 50.495 -10.98 50.495 -13 51 C-3.00166151 53.6612119 3.582392 55.03732521 13 50 C13.66 50 14.32 50 15 50 C13.36878983 55.13679226 10.23539287 59.04156103 7.0625 63.3125 C5.87352981 64.93512166 4.68605441 66.55883958 3.5 68.18359375 C2.90703125 68.99554199 2.3140625 69.80749023 1.703125 70.64404297 C-0.73434219 74.01582599 -3.09381723 77.43762787 -5.4375 80.875 C-9.69480027 87.10760539 -13.98881753 93.31322105 -18.3125 99.5 C-18.88734131 100.32483887 -19.46218262 101.14967773 -20.05444336 101.99951172 C-28.12735724 113.53826553 -28.12735724 113.53826553 -31 117 C-31.33 117 -31.66 117 -32 117 C-31.42148949 107.38976425 -30.05212726 97.94714064 -28.52587891 88.45141602 C-28.12104634 85.91270657 -27.73431066 83.3716117 -27.34765625 80.83007812 C-27.08964367 79.20815764 -26.83056844 77.58640577 -26.5703125 75.96484375 C-26.45769073 75.20864243 -26.34506897 74.4524411 -26.22903442 73.67332458 C-25.72609463 70.64797998 -25.34307394 68.42886864 -23.40185547 66.00219727 C-22.93924316 65.67147217 -22.47663086 65.34074707 -22 65 C-31.99833849 62.3387881 -38.582392 60.96267479 -48 66 C-48.66 66 -49.32 66 -50 66 C-48.67116216 63.15798141 -47.17328895 60.76778831 -45.234375 58.3046875 C-44.68136719 57.59828125 -44.12835938 56.891875 -43.55859375 56.1640625 C-42.96175781 55.40867188 -42.36492188 54.65328125 -41.75 53.875 C-40.4738667 52.24746768 -39.19782762 50.61986147 -37.921875 48.9921875 C-37.26896484 48.16170898 -36.61605469 47.33123047 -35.94335938 46.47558594 C-32.94875964 42.66085713 -29.97474551 38.83021685 -27 35 C-23.40885172 30.38078161 -19.81586486 25.76301144 -16.21875 21.1484375 C-15.59613281 20.34921875 -14.97351563 19.55 -14.33203125 18.7265625 C-13.15292782 17.21308645 -11.97328354 15.70003153 -10.79296875 14.1875 C-9.98279297 13.14722656 -9.98279297 13.14722656 -9.15625 12.0859375 C-8.63417969 11.4165918 -8.11210938 10.74724609 -7.57421875 10.05761719 C-6.4741437 8.61973993 -5.39494977 7.16575335 -4.33203125 5.70019531 C-3.79964844 4.96639648 -3.26726562 4.23259766 -2.71875 3.4765625 C-2.24373047 2.80963379 -1.76871094 2.14270508 -1.27929688 1.45556641 C-0.85712891 0.97522949 -0.43496094 0.49489258 0 0 Z " fill="#FFFFFF" transform="translate(84,8)"/>
</svg>
